HIERARCHY
ROOT Hips
{
	OFFSET 0.000000 0.000000 0.000000
	CHANNELS 6 Xposition Yposition Zposition Zrotation Yrotation Xrotation 
	JOINT LHipJoint
	{
		OFFSET 0.000000 0.000000 0.000000
		CHANNELS 3 Zrotation Yrotation Xrotation
		JOINT LeftUpLeg
		{
			OFFSET 1.363060 -1.794630 0.839290
			CHANNELS 3 Zrotation Yrotation Xrotation
			JOINT LeftLeg
			{
				OFFSET 2.448110 -6.726130 0.000000
				CHANNELS 3 Zrotation Yrotation Xrotation
				JOINT LeftFoot
				{
					OFFSET 2.562200 -7.039590 0.000000
					CHANNELS 3 Zrotation Yrotation Xrotation
					JOINT LeftToeBase
					{
						OFFSET 0.157640 -0.433110 2.322550
						CHANNELS 3 Zrotation Yrotation Xrotation
						End Site
						{
							OFFSET 0.000000 0.000000 0.000000
						}
					}
				}
			}
		}
	}
	JOINT RHipJoint
	{
		OFFSET 0.000000 0.000000 0.000000
		CHANNELS 3 Zrotation Yrotation Xrotation
		JOINT RightUpLeg
		{
			OFFSET -1.305520 -1.794630 0.839290
			CHANNELS 3 Zrotation Yrotation Xrotation
			JOINT RightLeg
			{
				OFFSET -2.542530 -6.985550 0.000000
				CHANNELS 3 Zrotation Yrotation Xrotation
				JOINT RightFoot
				{
					OFFSET -2.568260 -7.056230 0.000000
					CHANNELS 3 Zrotation Yrotation Xrotation
					JOINT RightToeBase
					{
						OFFSET -0.164730 -0.452590 2.363150
						CHANNELS 3 Zrotation Yrotation Xrotation
						End Site
						{
							OFFSET 0.000000 0.000000 0.000000
						}
					}
				}
			}
		}
	}
}
MOTION
Frames: 22
Frame Time: 0.008333
3.070464 16.750404 1.299771 -143.259476 -89.029869 153.587971 -11.063195 3.722365 0.117613 -5.012057 2.046859 6.180486 -0.997463 1.373269 22.867921 0.438393 1.833524 1.152208 0.283300 0.000000 -77.435700 8.254058 -0.818110 3.572893 8.479507 6.049802 -33.679389 2.689794 -0.044527 7.919012 -0.149775 -2.365646 10.423621 -1.559800 -0.000000 -33.118100
2.887594 16.778226 1.273432 -129.232236 -88.828535 139.588063 -11.380806 3.755414 0.111452 -4.169890 2.426177 5.022334 -0.731645 1.555677 25.332905 0.459908 1.659044 3.333530 0.288000 0.000001 -78.506701 7.993573 -0.998725 3.638691 9.042865 6.574434 -33.466706 2.705296 -0.133470 8.897095 -0.185459 -2.544318 10.056895 -1.606100 0.000000 -32.048800
2.709571 16.806888 1.245081 -121.466555 -88.526759 131.846801 -11.649057 3.775559 0.093979 -3.379582 2.840753 3.739941 -0.472368 1.728291 27.937264 0.513128 1.520031 5.609086 0.268299 0.000000 -78.479500 7.798775 -1.138691 3.690379 9.605069 7.061225 -33.195732 2.722126 -0.209181 9.812660 -0.231759 -2.748865 9.514604 -1.648600 0.000000 -30.927500
2.536557 16.835964 1.214138 -116.773595 -88.229409 127.177880 -11.869308 3.770951 0.068951 -2.685951 3.242580 2.354480 -0.220877 1.882222 30.652393 0.602867 1.499976 7.882593 0.247101 -0.000000 -77.245800 7.654037 -1.248589 3.726703 10.129597 7.473164 -32.869354 2.736966 -0.271913 10.648374 -0.285770 -2.960821 8.824198 -1.679500 0.000000 -29.793300
2.368940 16.865121 1.181157 -113.249476 -87.962295 123.671740 -12.053852 3.736179 0.035366 -2.083326 3.620902 0.879209 0.016696 2.016067 33.457318 0.727095 1.659831 10.036968 0.256100 -0.000000 -74.826100 7.541817 -1.335916 3.747464 10.619738 7.809467 -32.470653 2.751628 -0.318037 11.365024 -0.346814 -3.186865 8.034781 -1.702300 -0.000000 -28.664600
2.206506 16.894089 1.146430 -110.099317 -87.738808 120.534625 -12.206356 3.671105 -0.005285 -1.578657 3.958504 -0.670752 0.234128 2.132024 36.325757 0.881104 2.071174 11.960047 0.338899 0.000000 -71.364000 7.456166 -1.404451 3.751293 11.073494 8.058494 -31.998180 2.767394 -0.346656 11.945456 -0.411620 -3.414580 7.187059 -1.714099 -0.000000 -27.561900
2.048977 16.922651 1.110618 -106.773704 -87.557576 117.216617 -12.334321 3.576258 -0.051604 -1.160890 4.247900 -2.286818 0.429116 2.234481 39.232848 1.058407 2.786848 13.559125 0.536100 -0.000001 -67.139500 7.387966 -1.459778 3.739832 11.499432 8.221367 -31.453445 2.786597 -0.357071 12.374417 -0.477908 -3.639573 6.321135 -1.716200 0.000000 -26.492300
1.896060 16.950721 1.074037 -103.050892 -87.420428 113.493947 -12.440513 3.455154 -0.100963 -0.834946 4.475925 -3.953380 0.601940 2.328798 42.144901 1.254022 3.847637 14.776158 0.878800 0.000000 -62.513600 7.334768 -1.504550 3.711615 11.894499 8.288491 -30.847187 2.809424 -0.351348 12.659139 -0.541653 -3.844139 5.466085 -1.705500 -0.000000 -25.473299
1.747112 16.978265 1.037121 -98.757486 -87.320960 109.196529 -12.530763 3.311369 -0.149879 -0.595632 4.635377 -5.658923 0.755534 2.419321 45.028388 1.464527 5.258726 15.585380 1.375300 -0.000001 -57.865100 7.291442 -1.542712 3.668037 12.260062 8.262996 -30.191285 2.836121 -0.331290 12.808264 -0.600364 -4.020558 4.646644 -1.683100 0.000000 -24.513900
1.601857 17.005289 1.000030 -93.894740 -87.255734 104.320872 -12.607143 3.149563 -0.196194 -0.448587 4.719301 -7.383601 0.892767 2.509741 47.844980 1.688146 6.996316 15.988787 2.010300 -0.000000 -53.495300 7.257811 -1.574698 3.606936 12.588349 8.143112 -29.498194 2.865072 -0.300400 12.844459 -0.651080 -4.155901 3.877079 -1.648200 0.000000 -23.632600
1.459430 17.031864 0.963217 -88.477751 -87.210283 98.889746 -12.676283 2.973612 -0.235629 -0.381357 4.730693 -9.121626 1.016661 2.601469 50.563013 1.922588 8.993996 16.003830 2.741300 -0.000000 -49.607500 7.227812 -1.604011 3.534189 12.881892 7.951248 -28.782452 2.895601 -0.260274 12.782299 -0.694390 -4.258589 3.170132 -1.606400 0.000000 -22.830800
1.319505 17.058064 0.926670 -82.712890 -87.179962 93.107402 -12.737512 2.789336 -0.267913 -0.397211 4.674941 -10.854537 1.128219 2.695999 53.146734 2.164393 11.164486 15.658640 3.509700 -0.000000 -46.242600 7.203630 -1.629042 3.449309 13.131347 7.697183 -28.054243 2.925110 -0.214356 12.649602 -0.729496 -4.325057 2.526317 -1.558300 -0.000000 -22.124500
1.183026 17.084379 0.897249 -63.807079 -86.902365 74.183881 -12.993034 2.618704 -0.066305 -0.175014 3.732687 -12.812419 1.232696 2.843895 55.839015 2.412208 13.335442 14.945786 4.205301 -0.000000 -43.398500 7.020949 -1.682596 3.144231 13.735807 6.465789 -27.215859 3.036212 -0.112220 12.250965 -0.732270 -4.300570 1.975670 -1.506600 -0.000000 -21.372900
1.046405 17.109754 0.861560 -59.225320 -86.824042 69.593270 -13.034720 2.440356 -0.076430 -0.327213 3.582662 -14.515604 1.319368 2.948915 58.055561 2.649396 15.516321 14.023316 4.846000 0.000000 -41.050300 7.010013 -1.692719 3.051618 13.897098 6.170391 -26.496766 3.059390 -0.057771 12.033912 -0.756355 -4.327163 1.453270 -1.457700 0.000000 -20.850000
0.910987 17.134840 0.826015 -54.930418 -86.763768 65.292891 -13.058965 2.269377 -0.080906 -0.545143 3.408569 -16.184725 1.395013 3.052562 60.050888 2.870874 17.530692 12.887709 5.334100 -0.000000 -39.087999 7.012162 -1.695294 2.959851 14.004943 5.877837 -25.786591 3.075648 -0.003363 11.802595 -0.777098 -4.341319 0.973150 -1.408600 0.000000 -20.417700
0.776543 17.159606 0.790687 -51.058492 -86.724268 61.415665 -13.064693 2.107155 -0.083629 -0.814845 3.231309 -17.804427 1.459226 3.151153 61.801346 3.066015 19.273509 11.602422 5.631501 -0.000000 -37.459500 7.026409 -1.691836 2.872131 14.065648 5.609345 -25.075684 3.084685 0.050070 11.560739 -0.796655 -4.353150 0.527016 -1.361000 -0.000001 -20.058100
0.642364 17.183935 0.755409 -47.524384 -86.711464 57.897993 -13.050342 1.954167 -0.079062 -1.136149 3.052124 -19.400529 1.511013 3.239552 63.299440 3.226791 20.676389 10.238272 5.731700 0.000000 -36.136500 7.052782 -1.683771 2.799156 14.076830 5.384554 -24.392705 3.086083 0.103384 11.313056 -0.817468 -4.372215 0.102700 -1.316300 -0.000001 -19.753700
0.509059 17.207763 0.720368 -44.492973 -86.730579 54.876544 -13.017020 1.810085 -0.078191 -1.489972 2.901139 -20.926784 1.548714 3.315391 64.522397 3.343884 21.677371 8.858845 5.642900 0.000000 -35.076500 7.088840 -1.672883 2.734125 14.052383 5.205893 -23.691511 3.081264 0.155480 11.049794 -0.838813 -4.395264 -0.302512 -1.272800 -0.000000 -19.483499
0.375910 17.230920 0.685210 -41.726495 -86.792253 52.136490 -12.962499 1.675756 -0.074628 -1.889913 2.767415 -22.409834 1.569938 3.375298 65.470313 3.414050 22.269482 7.511722 5.398999 0.000000 -34.198600 7.137402 -1.658790 2.681712 13.983146 5.068538 -23.004111 3.070369 0.207266 10.775944 -0.859490 -4.411941 -0.700351 -1.227900 0.000000 -19.235701
0.243362 17.253320 0.650320 -39.356685 -86.893538 49.788806 -12.891583 1.548503 -0.074940 -2.311664 2.672100 -23.820560 1.573623 3.417786 66.133518 3.435903 22.461227 6.260707 5.048300 0.000000 -33.556300 7.192315 -1.644604 2.637355 13.890035 4.972464 -22.292094 3.056581 0.259494 10.471114 -0.878491 -4.420539 -1.085497 -1.181900 -0.000000 -18.987300
0.111344 17.274787 0.615866 -37.333554 -87.033970 47.784733 -12.806600 1.426712 -0.079351 -2.749884 2.614799 -25.159055 1.558567 3.442437 66.514776 3.412403 22.295123 5.128337 4.635400 0.000000 -33.044701 7.251377 -1.631118 2.598447 13.780535 4.907690 -21.553168 3.042196 0.313167 10.125703 -0.893692 -4.410965 -1.456923 -1.133700 -0.000000 -18.723500
-0.020197 17.295210 0.581971 -35.612100 -87.211856 46.076209 -12.709844 1.309436 -0.087019 -3.199906 2.592738 -26.420919 1.524377 3.449262 66.617615 3.350701 21.840013 4.133961 4.204701 0.000000 -32.623801 7.313156 -1.619070 2.561321 13.661425 4.858289 -20.781630 3.029369 0.368930 9.732237 -0.902246 -4.370060 -1.811201 -1.082000 0.000000 -18.437800
